# xmcd
#
# Track frame offsets: 
#        150
#        19437
#        29557
#        46855
#        61350
#        76492
#        85642
#        102847
#        116680
#        129792
#        141375
#        155812
#
# Disc length: 2194 seconds
#
# Revision: 2
# Processed by: cddbd v1.5.2PL0 Copyright (c) Steve Scherf et al.
# Submitted via: ExactAudioCopy v0.95b2
#
DISCID=9e08900c
DTITLE=Millie Jackson - It Hurts So Good
DYEAR=1973
DGENRE=R&B
TTITLE0=I Cry
TTITLE1=Hypocrisy
TTITLE2=Two-Faced World
TTITLE3=It Hurts So Good
TTITLE4=Don't Send Nobody Else
TTITLE5=Hypocrisy (Reprise)
TTITLE6=Good To The Very Last Drop
TTITLE7=Help Yourself
TTITLE8=Love Doctor
TTITLE9=Now That You Got It
TTITLE10=Close My Eyes
TTITLE11=Breakaway (Reprise)
EXTD=
EXTT0=
EXTT1=
EXTT2=
EXTT3=
EXTT4=
EXTT5=
EXTT6=
EXTT7=
EXTT8=
EXTT9=
EXTT10=
EXTT11=
PLAYORDER=
